# xmcd
#
# Track frame offsets: 
#        150
#        13469
#        34427
#        50346
#        63411
#        75138
#        96439
#        112929
#        124801
#        144192
#        155775
#        166778
#        180115
#        197009
#        217962
#        226612
#
# Disc length: 3191 seconds
#
# Revision: 0
# Processed by: cddbd v1.5.2PL0 Copyright (c) Steve Scherf et al.
# Submitted via: ExactAudioCopy v0.99pb4
#
DISCID=c70c7510
DTITLE=Various Artist - Country pisnicky podruhe
DYEAR=1998
DGENRE=Country
TTITLE0=Rangers - Colorado
TTITLE1=Duo Cervanek - Pampelisky
TTITLE2=Kocabka - Rekni kde ty kytky jsou
TTITLE3=Tucny Michal - Slamu v botach nosim
TTITLE4=Banjo Band I. Mladka - Prachovske skaly
TTITLE5=Stahlavsky Jindra - Ja lasku znam?
TTITLE6=Zoch Josef - Vysocina
TTITLE7=Nesveda Vladislav - Kocabka
TTITLE8=Usvit - Vzpominka na svatojanske proudy
TTITLE9=Tulak Carli - Na Osade
TTITLE10=Ja, bracha a mazanek - Kytky z musli
TTITLE11=Bea Psenickova - Maly dum nad skalou
TTITLE12=Tucny Vit - Usta do podkovy
TTITLE13=Country Dedows - Balicek cokolady
TTITLE14=Matuska Waldemar - Tuhle rundu platim ja
TTITLE15=Rangers - Tulak
EXTD=
EXTT0=
EXTT1=
EXTT2=
EXTT3=
EXTT4=
EXTT5=
EXTT6=
EXTT7=
EXTT8=
EXTT9=
EXTT10=
EXTT11=
EXTT12=
EXTT13=
EXTT14=
EXTT15=
PLAYORDER=
